<?xml version="1.0" encoding="utf-8"?>
<!-- Svg Vector Icons : http://www.onlinewebfonts.com/icon -->
<!DOCTYPE svg PUBLIC "-//W3C//DTD SVG 1.1//EN" "http://www.w3.org/Graphics/SVG/1.1/DTD/svg11.dtd">
<svg version="1.1" xmlns="http://www.w3.org/2000/svg" xmlns:xlink="http://www.w3.org/1999/xlink" x="0px" y="0px" viewBox="0 0 256 256" enable-background="new 0 0 256 256" xml:space="preserve">
<metadata> Svg Vector Icons : http://www.onlinewebfonts.com/icon </metadata>
<g><g><g><path fill="#000000" d="M143.7,10.6c-2.3,1-4.3,3.2-5.2,5.5c-0.5,1.2-0.7,22.2-0.7,66.7v64.9H128h-9.8l-0.1-46.1c-0.2-45.5-0.2-46.2-1.5-47.8c-0.7-0.9-2-2.3-3-3c-1.7-1.3-2.2-1.3-44.7-1.3c-42.5,0-43,0-44.7,1.3c-0.9,0.7-2.3,2-3,3c-1.3,1.7-1.3,1.9-1.5,87.1l-0.1,85.4l-2.7,0.7c-8.7,2.3-9.5,14.9-1.2,18.3c3,1.3,221.4,1.3,224.4,0c8.3-3.4,7.5-16.1-1.2-18.3l-2.7-0.7L236.2,121C236,16,236,15.9,234.7,14.3c-0.7-0.9-2-2.3-3-3c-1.7-1.3-2.3-1.3-43.9-1.4C153.5,9.8,145.2,9.9,143.7,10.6z M170.8,35.9c1.5,1.5,1.5,1.6,1.5,13.2c0,11.6,0,11.8-1.5,13.2c-0.9,1-2.2,1.5-3.4,1.5c-1.2,0-2.5-0.6-3.4-1.5c-1.5-1.5-1.5-1.6-1.5-13.2c0-11.6,0-11.8,1.5-13.2c0.9-1,2.2-1.5,3.4-1.5C168.6,34.3,169.8,34.9,170.8,35.9z M190.5,35.9c1.5,1.5,1.5,1.6,1.5,13.2c0,11.6,0,11.8-1.5,13.2c-0.9,1-2.2,1.5-3.4,1.5c-1.2,0-2.5-0.6-3.4-1.5c-1.5-1.5-1.5-1.6-1.5-13.2c0-11.6,0-11.8,1.5-13.2c0.9-1,2.2-1.5,3.4-1.5C188.3,34.3,189.5,34.9,190.5,35.9z M210.2,35.9c1.5,1.5,1.5,1.6,1.5,13.2c0,11.6,0,11.8-1.5,13.2c-0.9,1-2.2,1.5-3.4,1.5c-1.2,0-2.5-0.6-3.4-1.5c-1.5-1.5-1.5-1.6-1.5-13.2c0-11.6,0-11.8,1.5-13.2c0.9-1,2.2-1.5,3.4-1.5C207.9,34.3,209.2,34.9,210.2,35.9z M92,75.3c1,0.9,1.5,2.2,1.5,3.4c0,1.2-0.6,2.5-1.5,3.4l-1.5,1.5H68.9H47.3L45.8,82c-1-0.9-1.5-2.2-1.5-3.4c0-1.2,0.6-2.5,1.5-3.4l1.5-1.5h21.6h21.6L92,75.3z M170.8,75.3c1.5,1.5,1.5,1.6,1.5,13.2c0,11.6,0,11.8-1.5,13.2c-0.9,1-2.2,1.5-3.4,1.5c-1.2,0-2.5-0.6-3.4-1.5c-1.5-1.5-1.5-1.6-1.5-13.2c0-11.6,0-11.8,1.5-13.2c0.9-1,2.2-1.5,3.4-1.5C168.6,73.7,169.8,74.3,170.8,75.3z M190.5,75.3c1.5,1.5,1.5,1.6,1.5,13.2c0,11.6,0,11.8-1.5,13.2c-0.9,1-2.2,1.5-3.4,1.5c-1.2,0-2.5-0.6-3.4-1.5c-1.5-1.5-1.5-1.6-1.5-13.2c0-11.6,0-11.8,1.5-13.2c0.9-1,2.2-1.5,3.4-1.5C188.3,73.7,189.5,74.3,190.5,75.3z M210.2,75.3c1.5,1.5,1.5,1.6,1.5,13.2c0,11.6,0,11.8-1.5,13.2c-0.9,1-2.2,1.5-3.4,1.5c-1.2,0-2.5-0.6-3.4-1.5c-1.5-1.5-1.5-1.6-1.5-13.2c0-11.6,0-11.8,1.5-13.2c0.9-1,2.2-1.5,3.4-1.5C207.9,73.7,209.2,74.3,210.2,75.3z M92,94.9c1,0.9,1.5,2.2,1.5,3.4c0,1.2-0.6,2.5-1.5,3.4l-1.5,1.5H68.9H47.3l-1.5-1.5c-1-0.9-1.5-2.2-1.5-3.4c0-1.2,0.6-2.5,1.5-3.4l1.5-1.5h21.6h21.6L92,94.9z M92,114.6c1,0.9,1.5,2.2,1.5,3.4c0,1.2-0.6,2.5-1.5,3.4l-1.5,1.5H68.9H47.3l-1.5-1.5c-1-0.9-1.5-2.2-1.5-3.4c0-1.2,0.6-2.5,1.5-3.4l1.5-1.5h21.6h21.6L92,114.6z M170.8,114.6c1.5,1.5,1.5,1.6,1.5,13.2c0,11.6,0,11.8-1.5,13.2c-0.9,1-2.2,1.5-3.4,1.5c-1.2,0-2.5-0.6-3.4-1.5c-1.5-1.5-1.5-1.6-1.5-13.2c0-11.6,0-11.8,1.5-13.2c0.9-1,2.2-1.5,3.4-1.5C168.6,113.1,169.8,113.7,170.8,114.6z M190.5,114.6c1.5,1.5,1.5,1.6,1.5,13.2c0,11.6,0,11.8-1.5,13.2c-0.9,1-2.2,1.5-3.4,1.5c-1.2,0-2.5-0.6-3.4-1.5c-1.5-1.5-1.5-1.6-1.5-13.2c0-11.6,0-11.8,1.5-13.2c0.9-1,2.2-1.5,3.4-1.5C188.3,113.1,189.5,113.7,190.5,114.6z M210.2,114.6c1.5,1.5,1.5,1.6,1.5,13.2c0,11.6,0,11.8-1.5,13.2c-0.9,1-2.2,1.5-3.4,1.5c-1.2,0-2.5-0.6-3.4-1.5c-1.5-1.5-1.5-1.6-1.5-13.2c0-11.6,0-11.8,1.5-13.2c0.9-1,2.2-1.5,3.4-1.5C207.9,113.1,209.2,113.7,210.2,114.6z M92,134.3c1,0.9,1.5,2.2,1.5,3.4c0,1.2-0.6,2.5-1.5,3.4l-1.5,1.5H68.9H47.3l-1.5-1.5c-1-0.9-1.5-2.2-1.5-3.4c0-1.2,0.6-2.5,1.5-3.4l1.5-1.5h21.6h21.6L92,134.3z M72.3,154c1,0.9,1.5,2.2,1.5,3.4c0,1.2-0.6,2.5-1.5,3.4c-1.5,1.5-1.6,1.5-13.2,1.5c-11.6,0-11.8,0-13.2-1.5c-1-0.9-1.5-2.2-1.5-3.4c0-1.2,0.6-2.5,1.5-3.4c1.5-1.5,1.6-1.5,13.2-1.5C70.7,152.5,70.8,152.5,72.3,154z M190.5,154c1.5,1.5,1.5,1.6,1.5,13.2s0,11.8-1.5,13.2c-0.9,1-2.2,1.5-3.4,1.5c-1.2,0-2.5-0.6-3.4-1.5c-1.5-1.5-1.5-1.6-1.5-13.2c0-11.6,0-11.8,1.5-13.2c0.9-1,2.2-1.5,3.4-1.5C188.3,152.5,189.5,153,190.5,154z M210.2,154c1.5,1.5,1.5,1.6,1.5,13.2s0,11.8-1.5,13.2c-0.9,1-2.2,1.5-3.4,1.5c-1.2,0-2.5-0.6-3.4-1.5c-1.5-1.5-1.5-1.6-1.5-13.2c0-11.6,0-11.8,1.5-13.2c0.9-1,2.2-1.5,3.4-1.5C207.9,152.5,209.2,153,210.2,154z M72.3,173.7c1,0.9,1.5,2.2,1.5,3.4c0,1.2-0.6,2.5-1.5,3.4c-1.5,1.5-1.6,1.5-13.2,1.5c-11.6,0-11.8,0-13.2-1.5c-1-0.9-1.5-2.2-1.5-3.4c0-1.2,0.6-2.5,1.5-3.4c1.5-1.5,1.6-1.5,13.2-1.5C70.7,172.2,70.8,172.2,72.3,173.7z M151.1,173.7c1,0.9,1.5,2.2,1.5,3.4c0,1.2-0.6,2.5-1.5,3.4l-1.5,1.5H128h-21.6l-1.5-1.5c-1-0.9-1.5-2.2-1.5-3.4c0-1.2,0.6-2.5,1.5-3.4l1.5-1.5H128h21.6L151.1,173.7z M72.3,193.4c1,0.9,1.5,2.2,1.5,3.4c0,1.2-0.6,2.5-1.5,3.4c-1.5,1.5-1.6,1.5-13.2,1.5c-11.6,0-11.8,0-13.2-1.5c-1-0.9-1.5-2.2-1.5-3.4c0-1.2,0.6-2.5,1.5-3.4c1.5-1.5,1.6-1.5,13.2-1.5C70.7,191.9,70.8,191.9,72.3,193.4z M151.1,193.4c1,0.9,1.5,2.2,1.5,3.4c0,1.2-0.6,2.5-1.5,3.4l-1.5,1.5H128h-21.6l-1.5-1.5c-1-0.9-1.5-2.2-1.5-3.4c0-1.2,0.6-2.5,1.5-3.4l1.5-1.5H128h21.6L151.1,193.4z M190.5,193.4c1.5,1.5,1.5,1.6,1.5,13.2c0,11.6,0,11.8-1.5,13.2c-0.9,1-2.2,1.5-3.4,1.5c-1.2,0-2.5-0.6-3.4-1.5c-1.5-1.5-1.5-1.6-1.5-13.2c0-11.6,0-11.8,1.5-13.2c0.9-1,2.2-1.5,3.4-1.5C188.3,191.9,189.5,192.4,190.5,193.4z M210.2,193.4c1.5,1.5,1.5,1.6,1.5,13.2c0,11.6,0,11.8-1.5,13.2c-0.9,1-2.2,1.5-3.4,1.5c-1.2,0-2.5-0.6-3.4-1.5c-1.5-1.5-1.5-1.6-1.5-13.2c0-11.6,0-11.8,1.5-13.2c0.9-1,2.2-1.5,3.4-1.5C207.9,191.9,209.2,192.4,210.2,193.4z M72.3,213.1c1,0.9,1.5,2.2,1.5,3.4c0,1.2-0.6,2.5-1.5,3.4c-1.5,1.5-1.6,1.5-13.2,1.5c-11.6,0-11.8,0-13.2-1.5c-1-0.9-1.5-2.2-1.5-3.4c0-1.2,0.6-2.5,1.5-3.4c1.5-1.5,1.6-1.5,13.2-1.5C70.7,211.6,70.8,211.6,72.3,213.1z M151.1,213.1c1,0.9,1.5,2.2,1.5,3.4c0,1.2-0.6,2.5-1.5,3.4l-1.5,1.5H128h-21.6l-1.5-1.5c-1-0.9-1.5-2.2-1.5-3.4c0-1.2,0.6-2.5,1.5-3.4l1.5-1.5H128h21.6L151.1,213.1z"/></g></g></g>
</svg>